<svg width="205" height="45" viewBox="0 0 205 45" fill="none" xmlns="http://www.w3.org/2000/svg">
<path fill-rule="evenodd" clip-rule="evenodd" d="M40 16.8401V0H0L0 40H18.9537V36.4716H3.58946V3.54014H36.4399V16.8401H40Z" fill="white"/>
<path fill-rule="evenodd" clip-rule="evenodd" d="M30.7129 29.9988L40 40H33.5992L27.0279 32.9127V40H22.0022V30.0098H22V20H27.0256V27.0873L33.597 20H39.9978L30.7129 29.9988Z" fill="white"/>
<path fill-rule="evenodd" clip-rule="evenodd" d="M90.9351 10L88.3376 12.6982H86.5277L88.2705 10H90.9351ZM51.0836 25.8453V20.3631L55.8429 25.8453H58.2562L58.689 24.8941L59.4963 25.8453H61.3565L62.4123 23.3362H67.6409L68.6967 25.8453H71.7467L66.2164 13.7293H63.7697L58.689 24.8941L54.1001 19.4866L59.3119 13.7293H55.7089L51.0836 18.9366V13.7293H48V25.8453H51.0836ZM65.0266 17.0806L63.401 20.9646H66.6521L65.0266 17.0806ZM75.4838 25.8453V20.913H80.3438V18.4382H75.4838V16.2041H80.679V13.7293H72.4506V25.8453H75.4838ZM83.796 25.8453L84.8518 23.3362H90.0804L91.1362 25.8453H94.1863L88.656 13.7293H86.2092L80.6957 25.8453H83.796ZM87.4661 17.0806L85.8406 20.9646H89.0917L87.4661 17.0806ZM107.794 25.8453V23.2846H102.767V13.7293H99.683V25.8453H107.794ZM118.008 25.2352C117.12 25.7451 116.078 26 114.883 26C113.676 26 112.629 25.7451 111.741 25.2352C110.853 24.7254 110.168 24.0036 109.688 23.0698C109.207 22.1361 108.967 21.039 108.967 19.7787C108.967 18.5184 109.207 17.4214 109.688 16.4876C110.168 15.5539 110.853 14.8349 111.741 14.3308C112.629 13.8267 113.676 13.5747 114.883 13.5747C116.09 13.5747 117.137 13.8267 118.025 14.3308C118.913 14.8349 119.595 15.5539 120.07 16.4876C120.544 17.4214 120.782 18.5184 120.782 19.7787C120.782 21.039 120.542 22.1361 120.061 23.0698C119.581 24.0036 118.897 24.7254 118.008 25.2352ZM114.883 23.5768C113.989 23.5768 113.291 23.256 112.788 22.6144C112.285 21.9728 112.034 21.0276 112.034 19.7787C112.034 18.5299 112.285 17.5875 112.788 16.9517C113.291 16.3158 113.989 15.9979 114.883 15.9979C115.766 15.9979 116.461 16.3187 116.969 16.9603C117.478 17.6019 117.732 18.5414 117.732 19.7787C117.732 21.0161 117.48 21.9585 116.978 22.6058C116.475 23.2531 115.777 23.5768 114.883 23.5768ZM130.971 25.7594C130.189 25.9198 129.39 26 128.575 26C127.29 26 126.175 25.7508 125.231 25.2524C124.287 24.754 123.564 24.038 123.061 23.1042C122.558 22.1704 122.307 21.0619 122.307 19.7787C122.307 18.5299 122.558 17.4357 123.061 16.4962C123.564 15.5567 124.276 14.8349 125.198 14.3308C126.119 13.8267 127.2 13.5747 128.441 13.5747C129.301 13.5747 130.108 13.6892 130.862 13.9184C131.616 14.1475 132.228 14.4626 132.697 14.8636L131.742 17.0977C131.194 16.7311 130.669 16.4676 130.167 16.3072C129.664 16.1468 129.128 16.0666 128.558 16.0666C127.496 16.0666 126.706 16.3702 126.186 16.9774C125.667 17.5847 125.407 18.5184 125.407 19.7787C125.407 21.0734 125.678 22.0329 126.22 22.6574C126.762 23.2818 127.591 23.594 128.709 23.594C129.245 23.594 129.776 23.5367 130.301 23.4221V21.1708H128.223V19.0054H133.066V25.072C132.451 25.3699 131.753 25.599 130.971 25.7594ZM138.16 25.8453V13.7293H135.077V25.8453H138.16ZM148.35 24.9946C147.456 25.6649 146.199 26 144.579 26C143.696 26 142.825 25.8797 141.965 25.6391C141.104 25.3985 140.406 25.0777 139.87 24.6767L140.825 22.4425C141.395 22.8092 142.004 23.0899 142.652 23.2846C143.3 23.4794 143.953 23.5768 144.612 23.5768C145.283 23.5768 145.794 23.4823 146.146 23.2932C146.498 23.1042 146.674 22.8378 146.674 22.4941C146.674 22.1847 146.514 21.9327 146.196 21.7379C145.878 21.5431 145.272 21.3484 144.378 21.1536C143.272 20.913 142.406 20.6266 141.78 20.2943C141.155 19.962 140.716 19.5725 140.465 19.1257C140.213 18.6788 140.088 18.1289 140.088 17.4758C140.088 16.7311 140.292 16.0637 140.699 15.4737C141.107 14.8836 141.682 14.4196 142.425 14.0816C143.168 13.7436 144.02 13.5747 144.981 13.5747C145.83 13.5747 146.654 13.6978 147.453 13.9441C148.252 14.1905 148.875 14.5084 149.322 14.898L148.383 17.1321C147.311 16.3759 146.182 15.9979 144.998 15.9979C144.428 15.9979 143.97 16.1096 143.624 16.333C143.277 16.5564 143.104 16.8514 143.104 17.218C143.104 17.4357 143.166 17.6133 143.288 17.7508C143.411 17.8883 143.64 18.0229 143.976 18.1547C144.311 18.2864 144.808 18.4211 145.467 18.5585C146.54 18.7991 147.383 19.0884 147.998 19.4264C148.612 19.7644 149.048 20.1568 149.305 20.6037C149.562 21.0505 149.69 21.5832 149.69 22.2019C149.69 23.3935 149.243 24.3244 148.35 24.9946ZM157.215 25.8453V16.29H160.751V13.7293H150.562V16.29H154.098V25.8453H157.215ZM165.108 13.7293V25.8453H162.024V13.7293H165.108ZM172.984 26C173.755 26 174.501 25.8797 175.222 25.6391C175.942 25.3985 176.532 25.0777 176.99 24.6767L176.034 22.4425C175.062 23.1414 174.068 23.4909 173.051 23.4909C172.091 23.4909 171.356 23.1787 170.848 22.5542C170.339 21.9298 170.085 21.0047 170.085 19.7787C170.085 18.5528 170.339 17.6305 170.848 17.0118C171.356 16.3931 172.091 16.0838 173.051 16.0838C174.068 16.0838 175.062 16.4332 176.034 17.1321L176.99 14.898C176.532 14.497 175.942 14.1762 175.222 13.9356C174.501 13.695 173.755 13.5747 172.984 13.5747C171.755 13.5747 170.686 13.8324 169.775 14.348C168.865 14.8636 168.166 15.5883 167.68 16.522C167.194 17.4558 166.951 18.5414 166.951 19.7787C166.951 21.0161 167.194 22.1045 167.68 23.044C168.166 23.9835 168.865 24.7111 169.775 25.2266C170.686 25.7422 171.755 26 172.984 26ZM186.659 24.9946C185.766 25.6649 184.509 26 182.889 26C182.006 26 181.135 25.8797 180.274 25.6391C179.414 25.3985 178.716 25.0777 178.18 24.6767L179.135 22.4425C179.705 22.8092 180.313 23.0899 180.961 23.2846C181.609 23.4794 182.263 23.5768 182.922 23.5768C183.593 23.5768 184.104 23.4823 184.456 23.2932C184.808 23.1042 184.983 22.8378 184.983 22.4941C184.983 22.1847 184.824 21.9327 184.506 21.7379C184.187 21.5431 183.581 21.3484 182.688 21.1536C181.582 20.913 180.716 20.6266 180.09 20.2943C179.464 19.962 179.026 19.5725 178.774 19.1257C178.523 18.6788 178.397 18.1289 178.397 17.4758C178.397 16.7311 178.601 16.0637 179.009 15.4737C179.417 14.8836 179.992 14.4196 180.735 14.0816C181.478 13.7436 182.33 13.5747 183.291 13.5747C184.14 13.5747 184.964 13.6978 185.763 13.9441C186.562 14.1905 187.184 14.5084 187.631 14.898L186.693 17.1321C185.62 16.3759 184.492 15.9979 183.308 15.9979C182.738 15.9979 182.28 16.1096 181.933 16.333C181.587 16.5564 181.414 16.8514 181.414 17.218C181.414 17.4357 181.475 17.6133 181.598 17.7508C181.721 17.8883 181.95 18.0229 182.285 18.1547C182.621 18.2864 183.118 18.4211 183.777 18.5585C184.849 18.7991 185.693 19.0884 186.307 19.4264C186.922 19.7644 187.358 20.1568 187.615 20.6037C187.872 21.0505 188 21.5832 188 22.2019C188 23.3935 187.553 24.3244 186.659 24.9946Z" fill="white"/>
<path d="M55.346 40H54.176L52.616 37.062C52.4253 36.7067 52.2 36.464 51.94 36.334C51.6887 36.1953 51.342 36.126 50.9 36.126H49.184V40H48.131V30.835H51.901C52.8977 30.835 53.656 31.056 54.176 31.498C54.7047 31.94 54.969 32.59 54.969 33.448C54.969 34.1587 54.7653 34.735 54.358 35.177C53.9593 35.6103 53.3873 35.8833 52.642 35.996C52.876 36.0653 53.0797 36.1823 53.253 36.347C53.435 36.5117 53.5997 36.7327 53.747 37.01L55.346 40ZM51.81 35.242C52.5207 35.242 53.0493 35.0947 53.396 34.8C53.7513 34.5053 53.929 34.059 53.929 33.461C53.929 32.8717 53.7557 32.434 53.409 32.148C53.0623 31.862 52.5293 31.719 51.81 31.719H49.184V35.242H51.81ZM62.1911 36.997H57.5631C57.5978 37.7337 57.7971 38.2927 58.1611 38.674C58.5251 39.0467 59.0408 39.233 59.7081 39.233C60.4448 39.233 61.1208 38.9817 61.7361 38.479L62.0871 39.246C61.8098 39.506 61.4544 39.714 61.0211 39.87C60.5878 40.0173 60.1458 40.091 59.6951 40.091C58.7071 40.091 57.9271 39.8007 57.3551 39.22C56.7918 38.6393 56.5101 37.8377 56.5101 36.815C56.5101 36.165 56.6358 35.593 56.8871 35.099C57.1384 34.5963 57.4894 34.2063 57.9401 33.929C58.3994 33.6517 58.9194 33.513 59.5001 33.513C60.3408 33.513 60.9994 33.7903 61.4761 34.345C61.9528 34.891 62.1911 35.645 62.1911 36.607V36.997ZM59.5131 34.332C58.9584 34.332 58.5121 34.5053 58.1741 34.852C57.8448 35.1987 57.6498 35.6883 57.5891 36.321H61.2681C61.2508 35.6797 61.0904 35.19 60.7871 34.852C60.4838 34.5053 60.0591 34.332 59.5131 34.332ZM69.2564 33.682L66.5264 40H65.5384L62.8214 33.682H63.9394L66.0584 38.856L68.2034 33.682H69.2564ZM72.894 40.091C72.296 40.091 71.7673 39.9567 71.308 39.688C70.8573 39.4193 70.5063 39.038 70.255 38.544C70.0123 38.0413 69.891 37.4607 69.891 36.802C69.891 36.1433 70.0123 35.567 70.255 35.073C70.5063 34.5703 70.8573 34.1847 71.308 33.916C71.7673 33.6473 72.296 33.513 72.894 33.513C73.492 33.513 74.0206 33.6473 74.48 33.916C74.9393 34.1847 75.2903 34.5703 75.533 35.073C75.7843 35.567 75.91 36.1433 75.91 36.802C75.91 37.4607 75.7843 38.0413 75.533 38.544C75.2903 39.038 74.9393 39.4193 74.48 39.688C74.0206 39.9567 73.492 40.091 72.894 40.091ZM72.894 39.22C73.518 39.22 73.9946 39.0163 74.324 38.609C74.662 38.193 74.831 37.5907 74.831 36.802C74.831 36.0307 74.662 35.437 74.324 35.021C73.986 34.5963 73.5093 34.384 72.894 34.384C72.2786 34.384 71.802 34.5963 71.464 35.021C71.126 35.437 70.957 36.0307 70.957 36.802C70.957 37.582 71.1216 38.18 71.451 38.596C71.789 39.012 72.27 39.22 72.894 39.22ZM77.4789 30.835H78.5319V40H77.4789V30.835ZM85.8304 33.669V40H84.8034V38.921C84.6041 39.3023 84.3224 39.5927 83.9584 39.792C83.6031 39.9913 83.2001 40.091 82.7494 40.091C81.9954 40.091 81.4277 39.883 81.0464 39.467C80.6651 39.0423 80.4744 38.4183 80.4744 37.595V33.669H81.5274V37.569C81.5274 38.1323 81.6401 38.5483 81.8654 38.817C82.0907 39.077 82.4461 39.207 82.9314 39.207C83.4861 39.207 83.9324 39.0293 84.2704 38.674C84.6084 38.31 84.7774 37.8333 84.7774 37.244V33.669H85.8304ZM90.4655 40.091C89.8415 40.091 89.2998 39.9567 88.8405 39.688C88.3812 39.4193 88.0258 39.0423 87.7745 38.557C87.5318 38.063 87.4105 37.4867 87.4105 36.828C87.4105 36.1693 87.5362 35.593 87.7875 35.099C88.0475 34.5963 88.4072 34.2063 88.8665 33.929C89.3345 33.6517 89.8805 33.513 90.5045 33.513C90.9292 33.513 91.3452 33.591 91.7525 33.747C92.1598 33.8943 92.4892 34.0937 92.7405 34.345L92.3895 35.125C91.7915 34.6397 91.1848 34.397 90.5695 34.397C89.9195 34.397 89.4125 34.6093 89.0485 35.034C88.6845 35.4587 88.5025 36.0567 88.5025 36.828C88.5025 37.5907 88.6845 38.18 89.0485 38.596C89.4125 39.012 89.9195 39.22 90.5695 39.22C91.1848 39.22 91.7915 38.9773 92.3895 38.492L92.7405 39.272C92.4718 39.5233 92.1338 39.7227 91.7265 39.87C91.3192 40.0173 90.8988 40.091 90.4655 40.091ZM94.0082 33.669H95.0612V40H94.0082V33.669ZM95.1782 30.926V32.109H93.9042V30.926H95.1782ZM99.6557 40.091C99.0577 40.091 98.529 39.9567 98.0697 39.688C97.619 39.4193 97.268 39.038 97.0167 38.544C96.774 38.0413 96.6527 37.4607 96.6527 36.802C96.6527 36.1433 96.774 35.567 97.0167 35.073C97.268 34.5703 97.619 34.1847 98.0697 33.916C98.529 33.6473 99.0577 33.513 99.6557 33.513C100.254 33.513 100.782 33.6473 101.242 33.916C101.701 34.1847 102.052 34.5703 102.295 35.073C102.546 35.567 102.672 36.1433 102.672 36.802C102.672 37.4607 102.546 38.0413 102.295 38.544C102.052 39.038 101.701 39.4193 101.242 39.688C100.782 39.9567 100.254 40.091 99.6557 40.091ZM99.6557 39.22C100.28 39.22 100.756 39.0163 101.086 38.609C101.424 38.193 101.593 37.5907 101.593 36.802C101.593 36.0307 101.424 35.437 101.086 35.021C100.748 34.5963 100.271 34.384 99.6557 34.384C99.0404 34.384 98.5637 34.5963 98.2257 35.021C97.8877 35.437 97.7187 36.0307 97.7187 36.802C97.7187 37.582 97.8834 38.18 98.2127 38.596C98.5507 39.012 99.0317 39.22 99.6557 39.22ZM107.426 33.513C108.942 33.513 109.701 34.3493 109.701 36.022V40H108.648V36.087C108.648 35.4977 108.531 35.0687 108.297 34.8C108.071 34.5313 107.707 34.397 107.205 34.397C106.624 34.397 106.16 34.5747 105.814 34.93C105.467 35.2853 105.294 35.7663 105.294 36.373V40H104.241V33.669H105.281V34.709C105.489 34.319 105.779 34.0243 106.152 33.825C106.524 33.617 106.949 33.513 107.426 33.513ZM114.203 33.513C115.009 33.513 115.607 33.721 115.997 34.137C116.396 34.5443 116.595 35.1683 116.595 36.009V40H115.568V38.921C115.404 39.2937 115.152 39.584 114.814 39.792C114.476 39.9913 114.086 40.091 113.644 40.091C113.237 40.091 112.86 40.0087 112.513 39.844C112.175 39.6793 111.907 39.4497 111.707 39.155C111.508 38.8603 111.408 38.5353 111.408 38.18C111.408 37.7033 111.53 37.335 111.772 37.075C112.015 36.8063 112.414 36.6157 112.968 36.503C113.523 36.3817 114.294 36.321 115.282 36.321H115.568V35.892C115.568 35.3633 115.46 34.982 115.243 34.748C115.027 34.5053 114.676 34.384 114.19 34.384C113.462 34.384 112.739 34.6093 112.019 35.06L111.668 34.293C111.998 34.059 112.392 33.8727 112.851 33.734C113.319 33.5867 113.77 33.513 114.203 33.513ZM113.787 39.259C114.307 39.259 114.732 39.0857 115.061 38.739C115.399 38.3837 115.568 37.9287 115.568 37.374V36.997H115.334C114.572 36.997 113.991 37.0317 113.592 37.101C113.194 37.1617 112.908 37.27 112.734 37.426C112.57 37.5733 112.487 37.7943 112.487 38.089C112.487 38.427 112.609 38.7087 112.851 38.934C113.103 39.1507 113.415 39.259 113.787 39.259ZM121.708 33.513C123.225 33.513 123.983 34.3493 123.983 36.022V40H122.93V36.087C122.93 35.4977 122.813 35.0687 122.579 34.8C122.354 34.5313 121.99 34.397 121.487 34.397C120.906 34.397 120.443 34.5747 120.096 34.93C119.749 35.2853 119.576 35.7663 119.576 36.373V40H118.523V33.669H119.563V34.709C119.771 34.319 120.061 34.0243 120.434 33.825C120.807 33.617 121.231 33.513 121.708 33.513ZM131.528 30.835V40H130.475V38.843C130.284 39.2417 130.002 39.5493 129.63 39.766C129.266 39.9827 128.837 40.091 128.343 40.091C127.788 40.091 127.298 39.9523 126.874 39.675C126.449 39.3977 126.12 39.012 125.886 38.518C125.652 38.0153 125.535 37.4347 125.535 36.776C125.535 36.126 125.652 35.554 125.886 35.06C126.12 34.566 126.449 34.1847 126.874 33.916C127.298 33.6473 127.788 33.513 128.343 33.513C128.837 33.513 129.266 33.6213 129.63 33.838C130.002 34.0547 130.284 34.3623 130.475 34.761V30.835H131.528ZM128.551 39.22C129.166 39.22 129.638 39.012 129.968 38.596C130.306 38.1713 130.475 37.5733 130.475 36.802C130.475 36.0307 130.306 35.437 129.968 35.021C129.638 34.605 129.166 34.397 128.551 34.397C127.935 34.397 127.454 34.605 127.108 35.021C126.77 35.437 126.601 36.022 126.601 36.776C126.601 37.5473 126.77 38.1497 127.108 38.583C127.454 39.0077 127.935 39.22 128.551 39.22ZM136.104 40.091C135.506 40.091 134.977 39.9567 134.518 39.688C134.067 39.4193 133.716 39.038 133.465 38.544C133.222 38.0413 133.101 37.4607 133.101 36.802C133.101 36.1433 133.222 35.567 133.465 35.073C133.716 34.5703 134.067 34.1847 134.518 33.916C134.977 33.6473 135.506 33.513 136.104 33.513C136.702 33.513 137.231 33.6473 137.69 33.916C138.149 34.1847 138.5 34.5703 138.743 35.073C138.994 35.567 139.12 36.1433 139.12 36.802C139.12 37.4607 138.994 38.0413 138.743 38.544C138.5 39.038 138.149 39.4193 137.69 39.688C137.231 39.9567 136.702 40.091 136.104 40.091ZM136.104 39.22C136.728 39.22 137.205 39.0163 137.534 38.609C137.872 38.193 138.041 37.5907 138.041 36.802C138.041 36.0307 137.872 35.437 137.534 35.021C137.196 34.5963 136.719 34.384 136.104 34.384C135.489 34.384 135.012 34.5963 134.674 35.021C134.336 35.437 134.167 36.0307 134.167 36.802C134.167 37.582 134.332 38.18 134.661 38.596C134.999 39.012 135.48 39.22 136.104 39.22ZM144.04 30.835H145.093V40H144.04V30.835ZM149.636 33.513C150.442 33.513 151.04 33.721 151.43 34.137C151.829 34.5443 152.028 35.1683 152.028 36.009V40H151.001V38.921C150.836 39.2937 150.585 39.584 150.247 39.792C149.909 39.9913 149.519 40.091 149.077 40.091C148.67 40.091 148.293 40.0087 147.946 39.844C147.608 39.6793 147.339 39.4497 147.14 39.155C146.941 38.8603 146.841 38.5353 146.841 38.18C146.841 37.7033 146.962 37.335 147.205 37.075C147.448 36.8063 147.846 36.6157 148.401 36.503C148.956 36.3817 149.727 36.321 150.715 36.321H151.001V35.892C151.001 35.3633 150.893 34.982 150.676 34.748C150.459 34.5053 150.108 34.384 149.623 34.384C148.895 34.384 148.171 34.6093 147.452 35.06L147.101 34.293C147.43 34.059 147.825 33.8727 148.284 33.734C148.752 33.5867 149.203 33.513 149.636 33.513ZM149.22 39.259C149.74 39.259 150.165 39.0857 150.494 38.739C150.832 38.3837 151.001 37.9287 151.001 37.374V36.997H150.767C150.004 36.997 149.424 37.0317 149.025 37.101C148.626 37.1617 148.34 37.27 148.167 37.426C148.002 37.5733 147.92 37.7943 147.92 38.089C147.92 38.427 148.041 38.7087 148.284 38.934C148.535 39.1507 148.847 39.259 149.22 39.259ZM157.307 30.835H158.36V40H157.307V30.835ZM162.955 40.091C162.357 40.091 161.828 39.9567 161.369 39.688C160.918 39.4193 160.567 39.038 160.316 38.544C160.073 38.0413 159.952 37.4607 159.952 36.802C159.952 36.1433 160.073 35.567 160.316 35.073C160.567 34.5703 160.918 34.1847 161.369 33.916C161.828 33.6473 162.357 33.513 162.955 33.513C163.553 33.513 164.081 33.6473 164.541 33.916C165 34.1847 165.351 34.5703 165.594 35.073C165.845 35.567 165.971 36.1433 165.971 36.802C165.971 37.4607 165.845 38.0413 165.594 38.544C165.351 39.038 165 39.4193 164.541 39.688C164.081 39.9567 163.553 40.091 162.955 40.091ZM162.955 39.22C163.579 39.22 164.055 39.0163 164.385 38.609C164.723 38.193 164.892 37.5907 164.892 36.802C164.892 36.0307 164.723 35.437 164.385 35.021C164.047 34.5963 163.57 34.384 162.955 34.384C162.339 34.384 161.863 34.5963 161.525 35.021C161.187 35.437 161.018 36.0307 161.018 36.802C161.018 37.582 161.182 38.18 161.512 38.596C161.85 39.012 162.331 39.22 162.955 39.22ZM173.207 33.669V39.571C173.207 40.5157 172.965 41.2263 172.479 41.703C171.994 42.1883 171.275 42.431 170.321 42.431C169.212 42.431 168.28 42.145 167.526 41.573L167.877 40.793C168.302 41.0703 168.701 41.2697 169.073 41.391C169.446 41.5123 169.862 41.573 170.321 41.573C170.928 41.573 171.387 41.4083 171.699 41.079C172.011 40.7583 172.167 40.286 172.167 39.662V38.544C171.985 38.9513 171.704 39.2633 171.322 39.48C170.95 39.6967 170.508 39.805 169.996 39.805C169.442 39.805 168.948 39.675 168.514 39.415C168.09 39.155 167.756 38.7867 167.513 38.31C167.279 37.8333 167.162 37.283 167.162 36.659C167.162 36.035 167.279 35.4847 167.513 35.008C167.756 34.5313 168.09 34.163 168.514 33.903C168.948 33.643 169.442 33.513 169.996 33.513C170.499 33.513 170.937 33.6213 171.309 33.838C171.682 34.0547 171.964 34.3623 172.154 34.761V33.669H173.207ZM170.204 38.934C170.811 38.934 171.288 38.7347 171.634 38.336C171.981 37.9287 172.154 37.3697 172.154 36.659C172.154 35.957 171.981 35.4067 171.634 35.008C171.296 34.6007 170.82 34.397 170.204 34.397C169.589 34.397 169.104 34.6007 168.748 35.008C168.402 35.4067 168.228 35.957 168.228 36.659C168.228 37.3697 168.402 37.9287 168.748 38.336C169.104 38.7347 169.589 38.934 170.204 38.934ZM175.157 33.669H176.21V40H175.157V33.669ZM175.326 32.837L176.613 30.211H177.822L176.054 32.837H175.326ZM180.323 40.091C179.257 40.091 178.412 39.818 177.788 39.272L178.139 38.492C178.477 38.7607 178.819 38.9557 179.166 39.077C179.521 39.1897 179.92 39.246 180.362 39.246C180.83 39.246 181.185 39.168 181.428 39.012C181.679 38.8473 181.805 38.6133 181.805 38.31C181.805 38.0587 181.723 37.8593 181.558 37.712C181.393 37.5647 181.12 37.4477 180.739 37.361L179.673 37.114C179.136 36.9927 178.724 36.7847 178.438 36.49C178.152 36.1953 178.009 35.8313 178.009 35.398C178.009 34.8347 178.23 34.3797 178.672 34.033C179.114 33.6863 179.703 33.513 180.44 33.513C180.882 33.513 181.302 33.5867 181.701 33.734C182.1 33.8727 182.433 34.0763 182.702 34.345L182.351 35.112C181.77 34.618 181.133 34.371 180.44 34.371C179.998 34.371 179.651 34.4577 179.4 34.631C179.157 34.7957 179.036 35.0297 179.036 35.333C179.036 35.5843 179.11 35.788 179.257 35.944C179.413 36.0913 179.66 36.204 179.998 36.282L181.077 36.542C181.666 36.6807 182.104 36.893 182.39 37.179C182.676 37.4563 182.819 37.8203 182.819 38.271C182.819 38.8257 182.594 39.2677 182.143 39.597C181.701 39.9263 181.094 40.091 180.323 40.091ZM187.143 39.246C187.333 39.246 187.524 39.233 187.715 39.207L187.663 40.039C187.463 40.0737 187.247 40.091 187.013 40.091C186.25 40.091 185.674 39.8917 185.284 39.493C184.902 39.0943 184.712 38.5397 184.712 37.829V34.501H183.477V33.669H184.712V31.745H185.765V33.669H187.559V34.501H185.765V37.751C185.765 38.7477 186.224 39.246 187.143 39.246ZM188.779 33.669H189.832V40H188.779V33.669ZM189.949 30.926V32.109H188.675V30.926H189.949ZM194.478 40.091C193.854 40.091 193.313 39.9567 192.853 39.688C192.394 39.4193 192.039 39.0423 191.787 38.557C191.545 38.063 191.423 37.4867 191.423 36.828C191.423 36.1693 191.549 35.593 191.8 35.099C192.06 34.5963 192.42 34.2063 192.879 33.929C193.347 33.6517 193.893 33.513 194.517 33.513C194.942 33.513 195.358 33.591 195.765 33.747C196.173 33.8943 196.502 34.0937 196.753 34.345L196.402 35.125C195.804 34.6397 195.198 34.397 194.582 34.397C193.932 34.397 193.425 34.6093 193.061 35.034C192.697 35.4587 192.515 36.0567 192.515 36.828C192.515 37.5907 192.697 38.18 193.061 38.596C193.425 39.012 193.932 39.22 194.582 39.22C195.198 39.22 195.804 38.9773 196.402 38.492L196.753 39.272C196.485 39.5233 196.147 39.7227 195.739 39.87C195.332 40.0173 194.912 40.091 194.478 40.091ZM200.595 33.513C201.401 33.513 201.999 33.721 202.389 34.137C202.788 34.5443 202.987 35.1683 202.987 36.009V40H201.96V38.921C201.795 39.2937 201.544 39.584 201.206 39.792C200.868 39.9913 200.478 40.091 200.036 40.091C199.629 40.091 199.252 40.0087 198.905 39.844C198.567 39.6793 198.298 39.4497 198.099 39.155C197.9 38.8603 197.8 38.5353 197.8 38.18C197.8 37.7033 197.921 37.335 198.164 37.075C198.407 36.8063 198.805 36.6157 199.36 36.503C199.915 36.3817 200.686 36.321 201.674 36.321H201.96V35.892C201.96 35.3633 201.852 34.982 201.635 34.748C201.418 34.5053 201.067 34.384 200.582 34.384C199.854 34.384 199.13 34.6093 198.411 35.06L198.06 34.293C198.389 34.059 198.784 33.8727 199.243 33.734C199.711 33.5867 200.162 33.513 200.595 33.513ZM200.179 39.259C200.699 39.259 201.124 39.0857 201.453 38.739C201.791 38.3837 201.96 37.9287 201.96 37.374V36.997H201.726C200.963 36.997 200.383 37.0317 199.984 37.101C199.585 37.1617 199.299 37.27 199.126 37.426C198.961 37.5733 198.879 37.7943 198.879 38.089C198.879 38.427 199 38.7087 199.243 38.934C199.494 39.1507 199.806 39.259 200.179 39.259Z" fill="white"/>
</svg>
